<svg width="256" height="256" viewBox="0 0 256 256" fill="none" xmlns="http://www.w3.org/2000/svg">
<g clip-path="url(#clip0_49_98)">
<rect width="256" height="256" fill="#005F73"/>
<g filter="url(#filter0_f_49_98)">
<path d="M0 0H256L0 256V0Z" fill="white" fill-opacity="0.2"/>
</g>
<path d="M84.256 212.888C84.4 212.696 84.536 212.6 84.664 212.6C84.76 212.616 84.848 212.728 84.928 212.936C85.024 213.144 85.072 213.56 85.072 214.184C83.808 216.088 82.664 217.784 81.64 219.272C81.208 219.912 80.776 220.536 80.344 221.144C79.912 221.752 79.52 222.296 79.168 222.776C78.832 223.256 78.544 223.64 78.304 223.928C78.08 224.216 77.944 224.36 77.896 224.36C77.624 224.36 77.344 224.24 77.056 224C76.8 223.856 76.504 223.672 76.168 223.448C75.848 223.224 75.544 222.984 75.256 222.728C74.952 222.472 74.696 222.216 74.488 221.96C74.28 221.704 74.176 221.464 74.176 221.24C74.176 220.872 74.24 220.384 74.368 219.776C74.496 219.152 74.68 218.456 74.92 217.688C75.144 216.92 75.408 216.096 75.712 215.216C76.016 214.32 76.344 213.408 76.696 212.48C76.136 212.48 75.704 212.52 75.4 212.6C75.08 212.664 74.84 212.728 74.68 212.792C74.52 212.856 74.408 212.904 74.344 212.936C74.28 212.968 74.224 212.952 74.176 212.888C74.08 212.808 74.088 212.624 74.2 212.336C74.312 212.048 74.472 211.728 74.68 211.376C74.872 211.024 75.096 210.68 75.352 210.344C75.592 210.008 75.808 209.744 76 209.552C76.112 209.44 76.336 209.384 76.672 209.384C77.024 209.384 77.44 209.408 77.92 209.456C78.16 208.896 78.376 208.392 78.568 207.944C78.76 207.496 78.944 207.088 79.12 206.72C79.296 206.336 79.464 205.976 79.624 205.64C79.8 205.288 79.992 204.928 80.2 204.56C80.328 204.48 80.584 204.536 80.968 204.728C81.352 204.904 81.736 205.144 82.12 205.448C82.504 205.736 82.824 206.048 83.08 206.384C83.352 206.72 83.44 206.992 83.344 207.2C83.312 207.296 83.264 207.408 83.2 207.536C83.152 207.648 83.072 207.808 82.96 208.016C82.864 208.208 82.736 208.464 82.576 208.784C82.432 209.104 82.248 209.504 82.024 209.984C82.472 210.016 82.864 210.016 83.2 209.984C83.536 209.952 83.768 209.872 83.896 209.744C84.056 209.6 84.144 209.584 84.16 209.696C84.176 209.792 84.144 209.968 84.064 210.224C83.984 210.48 83.864 210.776 83.704 211.112C83.544 211.432 83.376 211.744 83.2 212.048C83.024 212.336 82.84 212.584 82.648 212.792C82.456 213 82.288 213.096 82.144 213.08C81.888 213.032 81.64 212.992 81.4 212.96C81.176 212.912 80.952 212.872 80.728 212.84C80.136 214.232 79.576 215.688 79.048 217.208C78.536 218.728 78.152 220.2 77.896 221.624C78.152 221.32 78.44 220.96 78.76 220.544C79.096 220.128 79.432 219.688 79.768 219.224C80.12 218.744 80.472 218.256 80.824 217.76C81.176 217.264 81.52 216.784 81.856 216.32C82.624 215.216 83.424 214.072 84.256 212.888ZM89.7589 209C89.6469 209 89.3909 208.936 88.9909 208.808C88.6069 208.664 88.2069 208.48 87.7909 208.256C87.3749 208.032 86.9989 207.784 86.6629 207.512C86.3269 207.224 86.1589 206.944 86.1589 206.672C86.1589 206.352 86.2469 205.992 86.4229 205.592C86.5989 205.176 86.7909 204.776 86.9989 204.392C87.2229 204.008 87.4229 203.672 87.5989 203.384C87.7749 203.08 87.8629 202.872 87.8629 202.76C87.9109 202.76 88.0309 202.808 88.2229 202.904C88.4309 202.984 88.6629 203.096 88.9189 203.24C89.1909 203.368 89.4709 203.52 89.7589 203.696C90.0469 203.872 90.3029 204.056 90.5269 204.248C90.7509 204.424 90.9269 204.6 91.0549 204.776C91.1829 204.952 91.2149 205.104 91.1509 205.232C91.0229 205.52 90.8789 205.848 90.7189 206.216C90.5589 206.568 90.4069 206.92 90.2629 207.272C90.1189 207.624 89.9989 207.96 89.9029 208.28C89.8069 208.584 89.7589 208.824 89.7589 209ZM91.3669 212.768C91.5269 212.544 91.6709 212.432 91.7989 212.432C91.9109 212.432 92.0069 212.544 92.0869 212.768C92.1829 212.976 92.2309 213.408 92.2309 214.064C91.2549 215.584 90.3749 216.944 89.5909 218.144C89.2549 218.656 88.9189 219.16 88.5829 219.656C88.2629 220.136 87.9669 220.568 87.6949 220.952C87.4229 221.336 87.1909 221.64 86.9989 221.864C86.8229 222.104 86.7109 222.224 86.6629 222.224C86.5349 222.224 86.4069 222.192 86.2789 222.128C86.1669 222.064 86.0469 221.992 85.9189 221.912C85.6949 221.832 85.3829 221.68 84.9829 221.456C84.5989 221.232 84.2149 220.976 83.8309 220.688C83.4469 220.4 83.1189 220.104 82.8469 219.8C82.5589 219.496 82.4149 219.224 82.4149 218.984C82.4149 218.52 82.4949 217.96 82.6549 217.304C82.8149 216.648 83.0149 215.968 83.2549 215.264C83.4949 214.56 83.7589 213.864 84.0469 213.176C84.3349 212.472 84.5989 211.84 84.8389 211.28C85.0789 210.704 85.2789 210.232 85.4389 209.864C85.5989 209.48 85.6789 209.256 85.6789 209.192C85.7269 209.192 85.8469 209.24 86.0389 209.336C86.2469 209.416 86.4789 209.528 86.7349 209.672C87.0069 209.8 87.2869 209.952 87.5749 210.128C87.8629 210.304 88.1189 210.488 88.3429 210.68C88.5669 210.856 88.7429 211.032 88.8709 211.208C88.9989 211.384 89.0309 211.536 88.9669 211.664C88.8709 211.888 88.6949 212.28 88.4389 212.84C88.1829 213.384 87.9109 214.032 87.6229 214.784C87.3349 215.52 87.0549 216.312 86.7829 217.16C86.5269 218.008 86.3349 218.832 86.2069 219.632L91.3669 212.768ZM103.841 213.824C104.001 213.6 104.153 213.472 104.297 213.44C104.409 213.424 104.513 213.52 104.609 213.728C104.721 213.92 104.777 214.336 104.777 214.976C103.641 216.592 102.617 218.024 101.705 219.272C101.321 219.816 100.937 220.344 100.553 220.856C100.169 221.368 99.8171 221.824 99.4971 222.224C99.1931 222.624 98.9371 222.944 98.7291 223.184C98.5371 223.44 98.4171 223.568 98.3691 223.568C98.3371 223.568 98.3131 223.56 98.2971 223.544C98.2811 223.544 98.2571 223.544 98.2251 223.544V223.568C98.1291 223.568 97.8971 223.464 97.5291 223.256C97.1771 223.048 96.8011 222.8 96.4011 222.512C96.0171 222.224 95.6651 221.936 95.3451 221.648C95.0411 221.376 94.8891 221.168 94.8891 221.024C94.8891 220.784 94.9611 220.392 95.1051 219.848C95.2651 219.304 95.4571 218.68 95.6811 217.976C95.9211 217.272 96.1691 216.536 96.4251 215.768C96.6971 214.984 96.9531 214.232 97.1931 213.512C96.8891 213.96 96.5531 214.472 96.1851 215.048C95.8171 215.608 95.4491 216.192 95.0811 216.8C94.7131 217.392 94.3531 217.992 94.0011 218.6C93.6491 219.192 93.3291 219.752 93.0411 220.28C92.7531 220.792 92.5131 221.248 92.3211 221.648C92.1291 222.048 92.0011 222.352 91.9371 222.56C91.8411 222.56 91.6171 222.464 91.2651 222.272C90.9291 222.08 90.5691 221.856 90.1851 221.6C89.8011 221.36 89.4571 221.112 89.1531 220.856C88.8491 220.584 88.6971 220.376 88.6971 220.232C88.6971 220.056 88.7771 219.736 88.9371 219.272C89.0971 218.808 89.2971 218.264 89.5371 217.64C89.7771 217 90.0411 216.328 90.3291 215.624C90.6011 214.904 90.8571 214.208 91.0971 213.536C91.3371 212.864 91.5371 212.256 91.6971 211.712C91.8571 211.168 91.9371 210.752 91.9371 210.464C92.2411 210.464 92.5771 210.552 92.9451 210.728C93.3131 210.904 93.6491 211.104 93.9531 211.328C94.2731 211.552 94.5371 211.784 94.7451 212.024C94.9531 212.248 95.0571 212.416 95.0571 212.528C95.0571 212.608 95.0171 212.776 94.9371 213.032C94.8571 213.272 94.7451 213.576 94.6011 213.944C94.4731 214.312 94.3211 214.728 94.1451 215.192C93.9851 215.64 93.8091 216.112 93.6171 216.608C94.0011 215.856 94.4011 215.104 94.8171 214.352C95.2491 213.584 95.6651 212.896 96.0651 212.288C96.4811 211.664 96.8571 211.16 97.1931 210.776C97.5291 210.376 97.8091 210.176 98.0331 210.176C98.1771 210.176 98.4251 210.28 98.7771 210.488C99.1291 210.696 99.4891 210.944 99.8571 211.232C100.225 211.52 100.553 211.816 100.841 212.12C101.129 212.408 101.273 212.64 101.273 212.816C101.273 213.056 101.177 213.464 100.985 214.04C100.809 214.6 100.593 215.256 100.337 216.008C100.081 216.744 99.8011 217.528 99.4971 218.36C99.2091 219.176 98.9611 219.968 98.7531 220.736C98.9451 220.544 99.1611 220.296 99.4011 219.992C99.6411 219.688 99.8971 219.36 100.169 219.008C100.441 218.64 100.721 218.256 101.009 217.856C101.297 217.456 101.577 217.064 101.849 216.68C102.489 215.784 103.153 214.832 103.841 213.824ZM113.248 221.888C113.888 221.888 114.448 222.016 114.928 222.272C115.408 222.544 115.8 222.888 116.104 223.304C116.424 223.72 116.656 224.192 116.8 224.72C116.96 225.248 117.04 225.776 117.04 226.304C117.04 226.512 116.944 226.768 116.752 227.072C116.56 227.376 116.352 227.648 116.128 227.888C115.904 228.144 115.696 228.336 115.504 228.464C115.312 228.592 115.216 228.584 115.216 228.44C115.216 228.088 115.136 227.712 114.976 227.312C114.832 226.928 114.576 226.576 114.208 226.256C113.84 225.936 113.352 225.672 112.744 225.464C112.136 225.256 111.384 225.144 110.488 225.128C110.024 226.264 109.552 227.344 109.072 228.368C108.608 229.408 108.144 230.32 107.68 231.104C107.232 231.888 106.792 232.512 106.36 232.976C105.928 233.456 105.536 233.696 105.184 233.696C104.736 233.696 104.232 233.632 103.672 233.504C103.128 233.376 102.616 233.12 102.136 232.736C101.64 232.352 101.232 231.816 100.912 231.128C100.576 230.44 100.408 229.528 100.408 228.392C100.408 227.8 100.592 227.208 100.96 226.616C101.328 226.04 101.848 225.488 102.52 224.96C103.192 224.432 104 223.952 104.944 223.52C105.888 223.088 106.936 222.736 108.088 222.464C108.616 221.056 109.12 219.656 109.6 218.264C110.08 216.856 110.488 215.56 110.824 214.376C110.52 214.856 110.176 215.384 109.792 215.96C109.424 216.536 109.04 217.12 108.64 217.712C108.24 218.304 107.84 218.88 107.44 219.44C107.056 219.984 106.696 220.472 106.36 220.904C106.04 221.336 105.752 221.68 105.496 221.936C105.256 222.192 105.088 222.32 104.992 222.32C104.976 222.32 104.96 222.312 104.944 222.296C104.928 222.296 104.912 222.296 104.896 222.296V222.32C104.768 222.32 104.496 222.2 104.08 221.96C103.68 221.72 103.256 221.432 102.808 221.096C102.36 220.776 101.96 220.448 101.608 220.112C101.256 219.76 101.08 219.472 101.08 219.248C101.08 218.784 101.176 218.28 101.368 217.736C101.544 217.176 101.768 216.608 102.04 216.032C102.312 215.456 102.608 214.88 102.928 214.304C103.232 213.728 103.52 213.184 103.792 212.672C104.064 212.16 104.288 211.704 104.464 211.304C104.656 210.888 104.752 210.544 104.752 210.272C104.944 210.272 105.232 210.368 105.616 210.56C106 210.752 106.384 210.992 106.768 211.28C107.152 211.552 107.488 211.84 107.776 212.144C108.064 212.448 108.208 212.712 108.208 212.936C108.208 213.128 108.08 213.432 107.824 213.848C107.584 214.264 107.296 214.776 106.96 215.384C106.624 215.976 106.28 216.64 105.928 217.376C105.592 218.112 105.328 218.888 105.136 219.704C105.392 219.512 105.72 219.16 106.12 218.648C106.536 218.136 106.976 217.56 107.44 216.92C107.904 216.264 108.376 215.584 108.856 214.88C109.336 214.16 109.768 213.496 110.152 212.888C110.552 212.264 110.88 211.744 111.136 211.328C111.408 210.896 111.568 210.64 111.616 210.56V210.536C111.712 210.552 111.952 210.656 112.336 210.848C112.736 211.024 113.136 211.24 113.536 211.496C113.952 211.752 114.304 212.024 114.592 212.312C114.896 212.584 115 212.824 114.904 213.032C114.84 213.16 114.712 213.488 114.52 214.016C114.344 214.544 114.12 215.216 113.848 216.032C113.576 216.832 113.256 217.744 112.888 218.768C112.536 219.792 112.152 220.848 111.736 221.936C111.992 221.92 112.24 221.904 112.48 221.888C112.72 221.888 112.976 221.888 113.248 221.888ZM103.792 231.464C103.904 231.464 104.064 231.312 104.272 231.008C104.48 230.72 104.712 230.312 104.968 229.784C105.24 229.272 105.536 228.656 105.856 227.936C106.176 227.232 106.504 226.464 106.84 225.632C105.784 225.968 104.928 226.432 104.272 227.024C103.616 227.616 103.288 228.28 103.288 229.016C103.288 229.576 103.304 230.016 103.336 230.336C103.384 230.656 103.432 230.896 103.48 231.056C103.544 231.232 103.6 231.344 103.648 231.392C103.712 231.44 103.76 231.464 103.792 231.464ZM141.251 201.752C141.251 201.592 141.331 201.552 141.491 201.632C141.651 201.712 141.843 201.872 142.067 202.112C142.291 202.352 142.531 202.648 142.787 203C143.043 203.352 143.259 203.728 143.435 204.128C143.627 204.528 143.763 204.928 143.843 205.328C143.923 205.728 143.899 206.096 143.771 206.432C143.339 207.056 142.843 207.728 142.283 208.448C141.739 209.168 141.147 209.92 140.507 210.704C139.883 211.472 139.227 212.272 138.539 213.104C137.851 213.92 137.147 214.736 136.427 215.552C136.811 216.32 137.203 217.072 137.603 217.808C138.003 218.528 138.411 219.2 138.827 219.824C139.259 220.448 139.691 221.016 140.123 221.528C140.555 222.04 140.987 222.464 141.419 222.8C141.675 222.992 141.763 223.176 141.683 223.352C141.603 223.544 141.427 223.72 141.155 223.88C140.899 224.04 140.571 224.176 140.171 224.288C139.771 224.416 139.363 224.504 138.947 224.552C138.547 224.616 138.171 224.632 137.819 224.6C137.467 224.568 137.203 224.488 137.027 224.36C136.931 224.28 136.779 224.072 136.571 223.736C136.379 223.4 136.147 222.96 135.875 222.416C135.603 221.888 135.299 221.28 134.963 220.592C134.627 219.904 134.267 219.16 133.883 218.36C132.955 219.368 132.059 220.304 131.195 221.168C130.331 222.048 129.539 222.816 128.819 223.472C128.115 224.128 127.499 224.64 126.971 225.008C126.443 225.392 126.059 225.584 125.819 225.584C125.355 225.584 124.923 225.472 124.523 225.248C124.123 225.04 123.763 224.76 123.443 224.408C123.123 224.072 122.859 223.688 122.651 223.256C122.443 222.824 122.315 222.384 122.267 221.936C122.203 221.504 122.219 221.088 122.315 220.688C122.411 220.272 122.611 219.912 122.915 219.608C122.995 219.528 123.091 219.576 123.203 219.752C123.299 219.928 123.411 220.136 123.539 220.376C123.683 220.6 123.835 220.8 123.995 220.976C124.155 221.152 124.331 221.192 124.523 221.096C124.827 220.952 125.243 220.688 125.771 220.304C126.299 219.92 126.891 219.44 127.547 218.864C128.203 218.288 128.915 217.64 129.683 216.92C130.451 216.184 131.235 215.408 132.035 214.592C131.507 213.536 130.971 212.504 130.427 211.496C129.899 210.472 129.379 209.528 128.867 208.664C128.355 207.8 127.859 207.048 127.379 206.408C126.915 205.752 126.491 205.28 126.107 204.992C125.963 204.88 125.947 204.76 126.059 204.632C126.171 204.488 126.363 204.352 126.635 204.224C126.923 204.096 127.259 203.992 127.643 203.912C128.027 203.816 128.419 203.76 128.819 203.744C129.235 203.712 129.627 203.736 129.995 203.816C130.379 203.88 130.699 204.008 130.955 204.2C131.131 204.328 131.339 204.624 131.579 205.088C131.835 205.552 132.123 206.128 132.443 206.816C132.763 207.488 133.107 208.256 133.475 209.12C133.859 209.984 134.259 210.888 134.675 211.832C135.651 210.776 136.571 209.72 137.435 208.664C138.299 207.608 139.043 206.632 139.667 205.736C140.291 204.824 140.747 204.024 141.035 203.336C141.339 202.632 141.411 202.104 141.251 201.752ZM168.847 205.544C168.991 205.48 169.175 205.496 169.399 205.592C169.623 205.672 169.863 205.808 170.119 206C170.375 206.176 170.631 206.392 170.887 206.648C171.143 206.888 171.359 207.128 171.535 207.368C171.727 207.592 171.863 207.8 171.943 207.992C172.023 208.168 172.023 208.288 171.943 208.352C171.911 208.368 171.863 208.352 171.799 208.304C171.751 208.256 171.679 208.208 171.583 208.16C171.503 208.112 171.415 208.08 171.319 208.064C171.223 208.048 171.127 208.08 171.031 208.16C170.135 208.96 169.271 209.792 168.439 210.656C167.623 211.52 166.847 212.4 166.111 213.296C165.375 214.176 164.687 215.056 164.047 215.936C163.423 216.8 162.847 217.624 162.319 218.408C161.087 220.248 159.975 222.08 158.983 223.904C158.807 223.904 158.631 223.832 158.455 223.688C158.295 223.56 158.143 223.4 157.999 223.208C157.855 223.016 157.719 222.824 157.591 222.632C157.463 222.44 157.359 222.288 157.279 222.176C157.039 222.016 156.783 221.84 156.511 221.648C156.255 221.456 156.007 221.256 155.767 221.048C155.543 220.856 155.351 220.672 155.191 220.496C155.047 220.32 154.975 220.168 154.975 220.04C154.975 219.848 155.023 219.544 155.119 219.128C155.215 218.696 155.335 218.208 155.479 217.664C155.623 217.104 155.783 216.52 155.959 215.912C156.135 215.288 156.303 214.688 156.463 214.112C156.223 214.528 155.935 215.016 155.599 215.576C155.263 216.12 154.911 216.696 154.543 217.304C154.191 217.896 153.831 218.488 153.463 219.08C153.111 219.656 152.783 220.176 152.479 220.64C152.175 221.088 151.919 221.456 151.711 221.744C151.519 222.032 151.399 222.176 151.351 222.176H151.327C151.215 222.176 150.967 222.064 150.583 221.84C150.215 221.632 149.823 221.376 149.407 221.072C149.007 220.784 148.647 220.488 148.327 220.184C147.991 219.88 147.823 219.64 147.823 219.464C147.823 219.064 147.911 218.544 148.087 217.904C148.247 217.264 148.455 216.576 148.711 215.84C148.951 215.088 149.215 214.32 149.503 213.536C149.791 212.752 150.055 212.024 150.295 211.352C150.551 210.664 150.759 210.064 150.919 209.552C151.095 209.024 151.183 208.648 151.183 208.424C151.343 208.424 151.599 208.512 151.951 208.688C152.303 208.864 152.655 209.08 153.007 209.336C153.375 209.576 153.695 209.84 153.967 210.128C154.239 210.4 154.375 210.632 154.375 210.824C154.375 210.984 154.263 211.36 154.039 211.952C153.815 212.528 153.551 213.224 153.247 214.04C152.943 214.856 152.631 215.744 152.311 216.704C152.007 217.664 151.759 218.6 151.567 219.512C151.743 219.304 151.959 219.024 152.215 218.672C152.471 218.304 152.751 217.904 153.055 217.472C153.359 217.04 153.663 216.584 153.967 216.104C154.287 215.624 154.599 215.144 154.903 214.664C155.607 213.544 156.351 212.352 157.135 211.088C157.167 211.088 157.263 211.136 157.423 211.232C157.599 211.312 157.807 211.424 158.047 211.568C158.303 211.696 158.567 211.848 158.839 212.024C159.111 212.2 159.359 212.376 159.583 212.552C159.807 212.728 159.983 212.904 160.111 213.08C160.255 213.256 160.311 213.408 160.279 213.536C160.247 213.664 160.191 213.88 160.111 214.184C160.031 214.488 159.935 214.856 159.823 215.288C159.711 215.704 159.583 216.16 159.439 216.656C159.311 217.136 159.175 217.616 159.031 218.096C159.527 217.392 160.071 216.624 160.663 215.792C161.271 214.96 161.887 214.128 162.511 213.296C163.151 212.448 163.783 211.616 164.407 210.8C165.031 209.984 165.623 209.232 166.183 208.544C166.759 207.84 167.271 207.232 167.719 206.72C168.183 206.192 168.559 205.8 168.847 205.544ZM173.992 209.912C174.424 209.912 174.912 210.032 175.456 210.272C176 210.496 176.504 210.8 176.968 211.184C177.448 211.552 177.848 211.968 178.168 212.432C178.488 212.896 178.648 213.352 178.648 213.8C178.648 214.104 178.584 214.528 178.456 215.072C178.328 215.6 178.152 216.184 177.928 216.824C177.704 217.448 177.448 218.088 177.16 218.744C176.872 219.4 176.56 220 176.224 220.544C175.888 221.072 175.544 221.504 175.192 221.84C174.856 222.176 174.52 222.344 174.184 222.344C173.592 222.344 173.016 222.24 172.456 222.032C171.896 221.84 171.392 221.608 170.944 221.336C170.512 221.064 170.16 220.792 169.888 220.52C169.632 220.248 169.504 220.04 169.504 219.896C169.504 219.752 169.528 219.68 169.576 219.68C169.624 219.68 169.696 219.712 169.792 219.776C169.888 219.824 170.008 219.88 170.152 219.944C170.312 220.008 170.504 220.04 170.728 220.04C171.112 220.04 171.48 219.872 171.832 219.536C172.2 219.184 172.528 218.744 172.816 218.216C173.12 217.688 173.392 217.112 173.632 216.488C173.872 215.864 174.08 215.264 174.256 214.688C174.432 214.096 174.56 213.576 174.64 213.128C174.736 212.68 174.784 212.376 174.784 212.216C174.784 211.992 174.744 211.84 174.664 211.76C174.6 211.664 174.504 211.616 174.376 211.616C173.816 211.616 173.256 211.936 172.696 212.576C172.152 213.216 171.616 214.048 171.088 215.072C170.576 216.096 170.096 217.256 169.648 218.552C169.2 219.848 168.8 221.144 168.448 222.44C168.096 223.736 167.808 224.976 167.584 226.16C167.36 227.36 167.224 228.368 167.176 229.184V229.976C167.064 230.088 166.896 230.112 166.672 230.048C166.432 229.984 166.176 229.864 165.904 229.688C165.616 229.528 165.328 229.328 165.04 229.088C164.736 228.864 164.464 228.64 164.224 228.416C163.968 228.208 163.76 228.016 163.6 227.84C163.44 227.664 163.36 227.544 163.36 227.48C163.36 227.144 163.432 226.632 163.576 225.944C163.72 225.272 163.904 224.48 164.128 223.568C164.352 222.672 164.616 221.704 164.92 220.664C165.208 219.608 165.512 218.552 165.832 217.496C166.136 216.44 166.44 215.408 166.744 214.4C167.032 213.392 167.288 212.488 167.512 211.688C167.736 210.872 167.92 210.192 168.064 209.648C168.208 209.088 168.28 208.736 168.28 208.592C168.584 208.592 168.936 208.688 169.336 208.88C169.736 209.056 170.104 209.28 170.44 209.552C170.792 209.808 171.088 210.096 171.328 210.416C171.584 210.72 171.72 210.992 171.736 211.232C172.104 210.816 172.472 210.496 172.84 210.272C173.224 210.032 173.608 209.912 173.992 209.912Z" fill="white"/>
<g filter="url(#filter1_d_49_98)">
<rect x="77.0488" y="85" width="18.1872" height="7.2214" rx="3.6107" fill="#219EBC" fill-opacity="0.7" shape-rendering="crispEdges"/>
</g>
<g filter="url(#filter2_d_49_98)">
<rect x="99.5156" y="85" width="24.8737" height="7.2214" rx="3.6107" fill="#219EBC" fill-opacity="0.7" shape-rendering="crispEdges"/>
</g>
<g filter="url(#filter3_d_49_98)">
<rect x="128.668" y="85" width="34.5022" height="7.2214" rx="3.6107" fill="#219EBC" fill-opacity="0.7" shape-rendering="crispEdges"/>
</g>
<g filter="url(#filter4_d_49_98)">
<rect x="167.45" y="85" width="21.9317" height="7.2214" rx="3.6107" fill="#219EBC" fill-opacity="0.7" shape-rendering="crispEdges"/>
</g>
<g filter="url(#filter5_d_49_98)">
<rect x="99.248" y="99.9777" width="57.5037" height="33.4324" rx="4" fill="white" fill-opacity="0.7" shape-rendering="crispEdges"/>
</g>
<g filter="url(#filter6_d_49_98)">
<rect x="99.248" y="137.155" width="57.5037" height="33.4324" rx="4" fill="white" fill-opacity="0.5" shape-rendering="crispEdges"/>
</g>
<g filter="url(#filter7_d_49_98)">
<rect x="38" y="99.9777" width="57.5037" height="33.4324" rx="4" fill="white" fill-opacity="0.5" shape-rendering="crispEdges"/>
</g>
<g filter="url(#filter8_d_49_98)">
<rect x="38" y="137.155" width="57.5037" height="33.4324" rx="4" fill="white" fill-opacity="0.7" shape-rendering="crispEdges"/>
</g>
<g filter="url(#filter9_d_49_98)">
<rect x="160.496" y="99.9777" width="57.5037" height="33.4324" rx="4" fill="white" fill-opacity="0.5" shape-rendering="crispEdges"/>
</g>
<g filter="url(#filter10_d_49_98)">
<rect x="160.496" y="137.155" width="57.5037" height="33.4324" rx="4" fill="white" fill-opacity="0.7" shape-rendering="crispEdges"/>
</g>
<path d="M34.616 60H36.104V44.376H40.808V42.96H29.912V44.376H34.616V60ZM43.2386 60H44.7026V47.52H43.2386V60ZM43.2386 44.376H44.7026V42.96H43.2386V44.376ZM47.7151 60H49.1791V52.824C49.1791 49.968 50.9791 48.624 53.1151 48.624C55.2751 48.624 56.9791 49.968 56.9791 52.824V60H58.4431V52.656C58.4431 48.936 56.1631 47.28 53.4991 47.28C51.1951 47.28 49.8031 48.48 49.1791 49.704V47.52H47.7151V60ZM62.6536 64.56H64.0936L66.1096 60L71.4376 47.52H69.9016L65.4376 58.128L60.9736 47.52H59.4376L64.7176 59.904L62.6536 64.56ZM84.8401 60H86.2801L93.1201 42.96H91.5121L85.5601 58.008L79.6081 42.96H78.0001L84.8401 60ZM95.2698 60H96.7338V47.52H95.2698V60ZM95.2698 44.376H96.7338V42.96H95.2698V44.376ZM111.866 60V42.96H110.402V50.184H110.33C109.61 48.576 107.69 47.28 105.338 47.28C102.218 47.28 99.1464 49.512 99.1464 53.76C99.1464 58.008 102.218 60.24 105.338 60.24C107.69 60.24 109.61 58.944 110.33 57.336H110.402V60H111.866ZM100.61 53.76C100.61 50.304 103.082 48.624 105.53 48.624C107.978 48.624 110.45 50.328 110.45 53.76C110.45 57.192 107.978 58.896 105.53 58.896C103.082 58.896 100.61 57.216 100.61 53.76ZM120.623 60.24C122.567 60.24 124.391 59.448 125.519 58.056L124.751 57.264C123.839 58.344 122.375 58.944 120.791 58.944C118.175 58.944 115.919 57.312 115.679 54.288H126.407C126.815 49.584 123.623 47.28 120.455 47.28C117.335 47.28 114.287 49.56 114.287 53.736C114.287 57.936 117.311 60.24 120.623 60.24ZM115.679 53.112C115.943 50.136 118.151 48.576 120.455 48.576C122.831 48.576 125.015 50.184 125.087 53.112H115.679ZM134.688 60.24C137.904 60.24 141.12 57.912 141.12 53.76C141.12 49.608 137.904 47.28 134.688 47.28C131.472 47.28 128.256 49.608 128.256 53.76C128.256 57.912 131.472 60.24 134.688 60.24ZM129.72 53.76C129.72 50.448 132.168 48.624 134.688 48.624C137.208 48.624 139.656 50.448 139.656 53.76C139.656 57.072 137.208 58.896 134.688 58.896C132.168 58.896 129.72 57.072 129.72 53.76ZM157.106 60.24C161.57 60.24 165.266 56.976 165.002 51.552H158.354V52.872H163.538C163.178 56.904 160.37 58.824 157.202 58.824C153.314 58.824 150.05 55.872 150.05 51.48C150.05 47.088 153.242 44.16 157.202 44.16C158.834 44.16 161.042 44.664 162.602 46.728L163.706 45.888C161.81 43.344 159.146 42.72 157.154 42.72C152.402 42.72 148.538 46.296 148.538 51.48C148.538 56.664 152.45 60.24 157.106 60.24ZM173.377 60.24C175.729 60.24 177.649 58.944 178.369 57.336H178.441V60H179.905V47.52H178.441V50.184H178.369C177.649 48.576 175.729 47.28 173.377 47.28C170.257 47.28 167.185 49.512 167.185 53.76C167.185 58.008 170.257 60.24 173.377 60.24ZM168.649 53.76C168.649 50.304 171.121 48.624 173.569 48.624C176.017 48.624 178.489 50.328 178.489 53.76C178.489 57.192 176.017 58.896 173.569 58.896C171.121 58.896 168.649 57.216 168.649 53.76ZM182.926 60H184.39V42.96H182.926V60ZM187.403 60H188.867V42.96H187.403V60ZM197.615 60.24C199.559 60.24 201.383 59.448 202.511 58.056L201.743 57.264C200.831 58.344 199.367 58.944 197.783 58.944C195.167 58.944 192.911 57.312 192.671 54.288H203.399C203.807 49.584 200.615 47.28 197.447 47.28C194.327 47.28 191.279 49.56 191.279 53.736C191.279 57.936 194.303 60.24 197.615 60.24ZM192.671 53.112C192.935 50.136 195.143 48.576 197.447 48.576C199.823 48.576 202.007 50.184 202.079 53.112H192.671ZM205.848 60H207.312V53.376C207.312 50.448 209.112 48.648 211.392 48.648C211.656 48.648 211.824 48.672 212.016 48.72V47.352C211.848 47.304 211.656 47.28 211.368 47.28C209.064 47.28 207.816 48.744 207.312 50.424V47.52H205.848V60ZM216.826 64.56H218.266L220.282 60L225.609 47.52H224.074L219.61 58.128L215.146 47.52H213.61L218.89 59.904L216.826 64.56Z" fill="white"/>
</g>
<defs>
<filter id="filter0_f_49_98" x="-100" y="-100" width="456" height="456" filterUnits="userSpaceOnUse" color-interpolation-filters="sRGB">
<feFlood flood-opacity="0" result="BackgroundImageFix"/>
<feBlend mode="normal" in="SourceGraphic" in2="BackgroundImageFix" result="shape"/>
<feGaussianBlur stdDeviation="50" result="effect1_foregroundBlur_49_98"/>
</filter>
<filter id="filter1_d_49_98" x="64.0488" y="76" width="44.187" height="33.2214" filterUnits="userSpaceOnUse" color-interpolation-filters="sRGB">
<feFlood flood-opacity="0" result="BackgroundImageFix"/>
<feColorMatrix in="SourceAlpha" type="matrix" values="0 0 0 0 0 0 0 0 0 0 0 0 0 0 0 0 0 0 127 0" result="hardAlpha"/>
<feOffset dy="4"/>
<feGaussianBlur stdDeviation="6.5"/>
<feComposite in2="hardAlpha" operator="out"/>
<feColorMatrix type="matrix" values="0 0 0 0 0 0 0 0 0 0 0 0 0 0 0 0 0 0 0.16 0"/>
<feBlend mode="normal" in2="BackgroundImageFix" result="effect1_dropShadow_49_98"/>
<feBlend mode="normal" in="SourceGraphic" in2="effect1_dropShadow_49_98" result="shape"/>
</filter>
<filter id="filter2_d_49_98" x="86.5156" y="76" width="50.8735" height="33.2214" filterUnits="userSpaceOnUse" color-interpolation-filters="sRGB">
<feFlood flood-opacity="0" result="BackgroundImageFix"/>
<feColorMatrix in="SourceAlpha" type="matrix" values="0 0 0 0 0 0 0 0 0 0 0 0 0 0 0 0 0 0 127 0" result="hardAlpha"/>
<feOffset dy="4"/>
<feGaussianBlur stdDeviation="6.5"/>
<feComposite in2="hardAlpha" operator="out"/>
<feColorMatrix type="matrix" values="0 0 0 0 0 0 0 0 0 0 0 0 0 0 0 0 0 0 0.16 0"/>
<feBlend mode="normal" in2="BackgroundImageFix" result="effect1_dropShadow_49_98"/>
<feBlend mode="normal" in="SourceGraphic" in2="effect1_dropShadow_49_98" result="shape"/>
</filter>
<filter id="filter3_d_49_98" x="115.668" y="76" width="60.5024" height="33.2214" filterUnits="userSpaceOnUse" color-interpolation-filters="sRGB">
<feFlood flood-opacity="0" result="BackgroundImageFix"/>
<feColorMatrix in="SourceAlpha" type="matrix" values="0 0 0 0 0 0 0 0 0 0 0 0 0 0 0 0 0 0 127 0" result="hardAlpha"/>
<feOffset dy="4"/>
<feGaussianBlur stdDeviation="6.5"/>
<feComposite in2="hardAlpha" operator="out"/>
<feColorMatrix type="matrix" values="0 0 0 0 0 0 0 0 0 0 0 0 0 0 0 0 0 0 0.16 0"/>
<feBlend mode="normal" in2="BackgroundImageFix" result="effect1_dropShadow_49_98"/>
<feBlend mode="normal" in="SourceGraphic" in2="effect1_dropShadow_49_98" result="shape"/>
</filter>
<filter id="filter4_d_49_98" x="154.45" y="76" width="47.9316" height="33.2214" filterUnits="userSpaceOnUse" color-interpolation-filters="sRGB">
<feFlood flood-opacity="0" result="BackgroundImageFix"/>
<feColorMatrix in="SourceAlpha" type="matrix" values="0 0 0 0 0 0 0 0 0 0 0 0 0 0 0 0 0 0 127 0" result="hardAlpha"/>
<feOffset dy="4"/>
<feGaussianBlur stdDeviation="6.5"/>
<feComposite in2="hardAlpha" operator="out"/>
<feColorMatrix type="matrix" values="0 0 0 0 0 0 0 0 0 0 0 0 0 0 0 0 0 0 0.16 0"/>
<feBlend mode="normal" in2="BackgroundImageFix" result="effect1_dropShadow_49_98"/>
<feBlend mode="normal" in="SourceGraphic" in2="effect1_dropShadow_49_98" result="shape"/>
</filter>
<filter id="filter5_d_49_98" x="86.248" y="90.9777" width="83.5039" height="59.4324" filterUnits="userSpaceOnUse" color-interpolation-filters="sRGB">
<feFlood flood-opacity="0" result="BackgroundImageFix"/>
<feColorMatrix in="SourceAlpha" type="matrix" values="0 0 0 0 0 0 0 0 0 0 0 0 0 0 0 0 0 0 127 0" result="hardAlpha"/>
<feOffset dy="4"/>
<feGaussianBlur stdDeviation="6.5"/>
<feComposite in2="hardAlpha" operator="out"/>
<feColorMatrix type="matrix" values="0 0 0 0 0 0 0 0 0 0 0 0 0 0 0 0 0 0 0.16 0"/>
<feBlend mode="normal" in2="BackgroundImageFix" result="effect1_dropShadow_49_98"/>
<feBlend mode="normal" in="SourceGraphic" in2="effect1_dropShadow_49_98" result="shape"/>
</filter>
<filter id="filter6_d_49_98" x="86.248" y="128.155" width="83.5039" height="59.4324" filterUnits="userSpaceOnUse" color-interpolation-filters="sRGB">
<feFlood flood-opacity="0" result="BackgroundImageFix"/>
<feColorMatrix in="SourceAlpha" type="matrix" values="0 0 0 0 0 0 0 0 0 0 0 0 0 0 0 0 0 0 127 0" result="hardAlpha"/>
<feOffset dy="4"/>
<feGaussianBlur stdDeviation="6.5"/>
<feComposite in2="hardAlpha" operator="out"/>
<feColorMatrix type="matrix" values="0 0 0 0 0 0 0 0 0 0 0 0 0 0 0 0 0 0 0.16 0"/>
<feBlend mode="normal" in2="BackgroundImageFix" result="effect1_dropShadow_49_98"/>
<feBlend mode="normal" in="SourceGraphic" in2="effect1_dropShadow_49_98" result="shape"/>
</filter>
<filter id="filter7_d_49_98" x="25" y="90.9777" width="83.5039" height="59.4324" filterUnits="userSpaceOnUse" color-interpolation-filters="sRGB">
<feFlood flood-opacity="0" result="BackgroundImageFix"/>
<feColorMatrix in="SourceAlpha" type="matrix" values="0 0 0 0 0 0 0 0 0 0 0 0 0 0 0 0 0 0 127 0" result="hardAlpha"/>
<feOffset dy="4"/>
<feGaussianBlur stdDeviation="6.5"/>
<feComposite in2="hardAlpha" operator="out"/>
<feColorMatrix type="matrix" values="0 0 0 0 0 0 0 0 0 0 0 0 0 0 0 0 0 0 0.16 0"/>
<feBlend mode="normal" in2="BackgroundImageFix" result="effect1_dropShadow_49_98"/>
<feBlend mode="normal" in="SourceGraphic" in2="effect1_dropShadow_49_98" result="shape"/>
</filter>
<filter id="filter8_d_49_98" x="25" y="128.155" width="83.5039" height="59.4324" filterUnits="userSpaceOnUse" color-interpolation-filters="sRGB">
<feFlood flood-opacity="0" result="BackgroundImageFix"/>
<feColorMatrix in="SourceAlpha" type="matrix" values="0 0 0 0 0 0 0 0 0 0 0 0 0 0 0 0 0 0 127 0" result="hardAlpha"/>
<feOffset dy="4"/>
<feGaussianBlur stdDeviation="6.5"/>
<feComposite in2="hardAlpha" operator="out"/>
<feColorMatrix type="matrix" values="0 0 0 0 0 0 0 0 0 0 0 0 0 0 0 0 0 0 0.16 0"/>
<feBlend mode="normal" in2="BackgroundImageFix" result="effect1_dropShadow_49_98"/>
<feBlend mode="normal" in="SourceGraphic" in2="effect1_dropShadow_49_98" result="shape"/>
</filter>
<filter id="filter9_d_49_98" x="147.496" y="90.9777" width="83.5039" height="59.4324" filterUnits="userSpaceOnUse" color-interpolation-filters="sRGB">
<feFlood flood-opacity="0" result="BackgroundImageFix"/>
<feColorMatrix in="SourceAlpha" type="matrix" values="0 0 0 0 0 0 0 0 0 0 0 0 0 0 0 0 0 0 127 0" result="hardAlpha"/>
<feOffset dy="4"/>
<feGaussianBlur stdDeviation="6.5"/>
<feComposite in2="hardAlpha" operator="out"/>
<feColorMatrix type="matrix" values="0 0 0 0 0 0 0 0 0 0 0 0 0 0 0 0 0 0 0.16 0"/>
<feBlend mode="normal" in2="BackgroundImageFix" result="effect1_dropShadow_49_98"/>
<feBlend mode="normal" in="SourceGraphic" in2="effect1_dropShadow_49_98" result="shape"/>
</filter>
<filter id="filter10_d_49_98" x="147.496" y="128.155" width="83.5039" height="59.4324" filterUnits="userSpaceOnUse" color-interpolation-filters="sRGB">
<feFlood flood-opacity="0" result="BackgroundImageFix"/>
<feColorMatrix in="SourceAlpha" type="matrix" values="0 0 0 0 0 0 0 0 0 0 0 0 0 0 0 0 0 0 127 0" result="hardAlpha"/>
<feOffset dy="4"/>
<feGaussianBlur stdDeviation="6.5"/>
<feComposite in2="hardAlpha" operator="out"/>
<feColorMatrix type="matrix" values="0 0 0 0 0 0 0 0 0 0 0 0 0 0 0 0 0 0 0.16 0"/>
<feBlend mode="normal" in2="BackgroundImageFix" result="effect1_dropShadow_49_98"/>
<feBlend mode="normal" in="SourceGraphic" in2="effect1_dropShadow_49_98" result="shape"/>
</filter>
<clipPath id="clip0_49_98">
<rect width="256" height="256" fill="white"/>
</clipPath>
</defs>
</svg>
